<?xml version="1.0" encoding="UTF-8"?>
<!-- Versione full-bleed di favicon.svg: sfondo blu a tutto quadrato e marchio
     ridotto al 70% (zona sicura per le icone rotonde Android e per iOS). -->
<svg xmlns="http://www.w3.org/2000/svg" viewBox="0 0 297.41 297.41">
  <rect x="0" y="0" width="297.41" height="297.41" fill="#1e6baa"/>
  <g transform="translate(44.61, 44.61) scale(0.7)">
    <path fill="#fff" d="M42.68,188.67c.41-3.52,4.62-34.88,32.58-54.62,30.02-21.19,63.91-12.37,74.44-9.63,4.46,1.16,47.01,12.95,65.49,53.02,9.28,20.13,14.19,51.07,1.51,60.6-8.23,6.19-16.85-1.94-35.81,2.81-16.68,4.18-19.86,12.93-33.88,20.42-19.11,10.21-50.59,13.64-75.13-2.2-23.14-14.94-32.11-45.4-29.19-70.4Z"/>
    <path fill="#1e6baa" d="M77.63,172.73c12.59-11.66,42.56-.79,55.28,17.8,1.85,2.7,10.75,15.72,5.95,25.82-6.79,14.29-39.46,19.53-56.4,3.02-13.13-12.8-15.18-37.05-4.82-46.65Z"/>
    <path fill="#fff" d="M104.99,143.71c4.94-10.08,7.26-18.65,8.46-24.6,2.41-11.95,1.34-18.35,4.61-30.76,2.11-8.02,4.92-14.28,6.92-18.26,2.15-2.31,5.21-5.27,9.23-8.27,4.97-3.7,9.55-6.07,12.69-7.5,7.81-3.55,10.38-2.95,22.11-7.88,3.48-1.46,2.81-1.33,4.42-1.92,3.11-1.15,8.19-2.6,22.87-2.31,7.56.15,11.34.23,16.53,1.15,5.74,1.03,10.44,2.55,13.84,3.84,2.76,2.43,3.89,6.2,2.88,9.61-1.35,4.55-5.78,6.03-6.15,6.15-1.31.33-6.8,1.56-12.3-1.54-3.49-1.96-5.35-4.75-6.15-6.15-14.22-2.69-24.23-.74-30.76,1.54-5.91,2.06-6.01,3.38-17.11,7.88-13.02,5.29-15.76,4.65-20.57,8.84-5.59,4.87-7.95,11.03-10,16.34-2,5.2-3.71,9.58-3.84,16.92-.15,7.74-1.79,20.44-8.46,42.29-1.65,4-6.06,5.26-8.46,3.84-2.39-1.41-3.44-5.84-.77-9.23Z"/>
    <path fill="#fff" d="M127.01,142.39c10.27-4.51,17.57-9.57,22.33-13.35,9.55-7.58,12.86-13.16,23.36-20.53,6.79-4.77,12.97-7.74,17.07-9.49,3.13-.38,7.38-.67,12.38-.37,6.18.37,11.21,1.52,14.53,2.45,8.26,2.32,9.84,4.44,21.98,8.23,3.6,1.13,3,.8,4.62,1.38,3.11,1.13,7.93,3.3,18.97,12.99,5.68,4.99,8.52,7.48,11.89,11.54,3.73,4.49,6.34,8.68,8.1,11.86.54,3.64-1.02,7.25-3.99,9.2-3.97,2.61-8.31.88-8.67.73-1.22-.59-6.2-3.19-8.41-9.11-1.4-3.75-1.03-7.07-.73-8.67-9.13-11.22-18.04-16.19-24.5-18.66-5.85-2.23-6.77-1.3-18.16-5.01-13.36-4.36-15.05-6.61-21.42-6.51-7.41.12-13.19,3.3-18.18,6.04-4.88,2.69-9.01,4.93-13.85,10.45-5.1,5.82-14.55,14.47-33.74,26.86-3.84,2-8.02.11-8.94-2.52-.92-2.62,1.14-6.68,5.36-7.55Z"/>
    <path fill="#fff" d="M87.27,172.52c-4.18,2.14-6.38,7.6-6.09,12.13.41,6.64,6.08,10.52,11.8,14.43,4.92,3.37,11.52,7.89,15.7,5.45,4.63-2.69,4.31-12.77,1.09-19.51-4.13-8.63-15.16-16.26-22.49-12.51Z"/>
  </g>
</svg>
